# xmcd
#
# Track frame offsets: 
#        150
#        11570
#        24695
#        42142
#        62444
#        79869
#        100911
#        114679
#        129202
#        141357
#        156727
#        168320
#        181227
#        192815
#        203015
#        212842
#        224702
#
# Disc length: 3155 seconds
#
# Revision: 0
# Processed by: cddbd v1.5.2PL0 Copyright (c) Steve Scherf et al.
# Submitted via: ExactAudioCopy v0.99pb4
#
DISCID=f40c5111
DTITLE=Enrico Caruso - Opera Arias and Songs
DYEAR=1900
DGENRE=Opera
TTITLE0=Tosti -L'alba separa dalla luce l'ombra
TTITLE1=Cohan -Over there
TTITLE2=Alvarez -A Granada
TTITLE3=Niedermeyer -Pieta', Signore
TTITLE4=Caruso -Tempo antico
TTITLE5=Cardillo -Core 'ngrato
TTITLE6=Szulc -Hantise d'amour
TTITLE7=Tchaikovsky -Serenade de Don Juan
TTITLE8=Ciociano -Cielo turchino
TTITLE9=Donizetti (da L'elisir d'amor) -Una furtiva lagrima
TTITLE10=Boito (da Mefistofele) -Dai campi, dai prati
TTITLE11=Franchetti (da Germania) -Ah, vieni qui... No, non...
TTITLE12=Mascagni (da Iris serenata) -Apri la tua finestra
TTITLE13=Leoncavallo (da I Pagliacci) -Recitar!... Vesti la giubba
TTITLE14=Leoncavallo -Mattinata
TTITLE15=Ciloa (da Adriana Lecouvreur -No, piu' nobile
TTITLE16=Puccini (da Tosca) -E lucevan le stelle
EXTD=
EXTT0=
EXTT1=
EXTT2=
EXTT3=
EXTT4=
EXTT5=
EXTT6=
EXTT7=
EXTT8=
EXTT9=
EXTT10=
EXTT11=
EXTT12=
EXTT13=
EXTT14=
EXTT15=
EXTT16=
PLAYORDER=
